<?xml version="1.0" encoding="us-ascii" standalone="no"?><svg xmlns="http://www.w3.org/2000/svg" xmlns:xlink="http://www.w3.org/1999/xlink" contentStyleType="text/css" height="517px" preserveAspectRatio="none" style="width:766px;height:517px;background:#FFFFFF;" version="1.1" viewBox="0 0 766 517" width="766px" zoomAndPan="magnify"><defs/><g><rect fill="#F1F1F1" height="108.0469" style="stroke:#181818;stroke-width:0.5;" width="195" x="35.5" y="7"/><text fill="#000000" font-family="sans-serif" font-size="14" lengthAdjust="spacing" textLength="109" x="78.5" y="23.5332">&#171;HardwareNode&#187;</text><line style="stroke:#181818;stroke-width:1.0;" x1="117.5" x2="117.5" y1="28.6094" y2="115.0469"/><line style="stroke:#181818;stroke-width:1.0;" x1="35.5" x2="230.5" y1="28.6094" y2="28.6094"/><text fill="#000000" font-family="sans-serif" font-size="14" lengthAdjust="spacing" textLength="11" x="40.5" y="45.1426">id</text><text fill="#000000" font-family="sans-serif" font-size="14" lengthAdjust="spacing" textLength="39" x="122.5" y="45.1426">c0ffee</text><line style="stroke:#181818;stroke-width:1.0;" x1="35.5" x2="230.5" y1="50.2188" y2="50.2188"/><text fill="#000000" font-family="sans-serif" font-size="14" lengthAdjust="spacing" textLength="46" x="40.5" y="66.752">version</text><text fill="#000000" font-family="sans-serif" font-size="14" lengthAdjust="spacing" textLength="28" x="122.5" y="66.752">rev2</text><line style="stroke:#181818;stroke-width:1.0;" x1="35.5" x2="230.5" y1="71.8281" y2="71.8281"/><text fill="#000000" font-family="sans-serif" font-size="14" lengthAdjust="spacing" textLength="35" x="40.5" y="88.3613">name</text><text fill="#000000" font-family="sans-serif" font-size="14" lengthAdjust="spacing" textLength="87" x="122.5" y="88.3613">OWASYS Box</text><line style="stroke:#181818;stroke-width:1.0;" x1="35.5" x2="230.5" y1="93.4375" y2="93.4375"/><text fill="#000000" font-family="sans-serif" font-size="14" lengthAdjust="spacing" textLength="72" x="40.5" y="109.9707">parameters</text><text fill="#000000" font-family="sans-serif" font-size="14" lengthAdjust="spacing" textLength="103" x="122.5" y="109.9707">cpu-arch=armv7</text><rect fill="#F1F1F1" height="108.0469" style="stroke:#181818;stroke-width:0.5;" width="171" x="317.5" y="7"/><text fill="#000000" font-family="sans-serif" font-size="14" lengthAdjust="spacing" textLength="104" x="351" y="23.5332">&#171;SoftwareNode&#187;</text><line style="stroke:#181818;stroke-width:1.0;" x1="373.5" x2="373.5" y1="28.6094" y2="115.0469"/><line style="stroke:#181818;stroke-width:1.0;" x1="317.5" x2="488.5" y1="28.6094" y2="28.6094"/><text fill="#000000" font-family="sans-serif" font-size="14" lengthAdjust="spacing" textLength="11" x="322.5" y="45.1426">id</text><text fill="#000000" font-family="sans-serif" font-size="14" lengthAdjust="spacing" textLength="105" x="378.5" y="45.1426">update-manager</text><line style="stroke:#181818;stroke-width:1.0;" x1="317.5" x2="488.5" y1="50.2188" y2="50.2188"/><text fill="#000000" font-family="sans-serif" font-size="14" lengthAdjust="spacing" textLength="46" x="322.5" y="66.752">version</text><text fill="#000000" font-family="sans-serif" font-size="14" lengthAdjust="spacing" textLength="32" x="378.5" y="66.752">1.0.0</text><line style="stroke:#181818;stroke-width:1.0;" x1="317.5" x2="488.5" y1="71.8281" y2="71.8281"/><text fill="#000000" font-family="sans-serif" font-size="14" lengthAdjust="spacing" textLength="35" x="322.5" y="88.3613">name</text><text fill="#000000" font-family="sans-serif" font-size="14" lengthAdjust="spacing" textLength="105" x="378.5" y="88.3613">Update Manager</text><line style="stroke:#181818;stroke-width:1.0;" x1="317.5" x2="488.5" y1="93.4375" y2="93.4375"/><text fill="#000000" font-family="sans-serif" font-size="14" lengthAdjust="spacing" textLength="27" x="322.5" y="109.9707">type</text><text fill="#000000" font-family="sans-serif" font-size="14" lengthAdjust="spacing" textLength="89" x="378.5" y="109.9707">APPLICATION</text><rect fill="#F1F1F1" height="151.2656" style="stroke:#181818;stroke-width:0.5;" width="293" x="292.5" y="183"/><text fill="#000000" font-family="sans-serif" font-size="14" lengthAdjust="spacing" textLength="104" x="387" y="199.5332">&#171;SoftwareNode&#187;</text><line style="stroke:#181818;stroke-width:1.0;" x1="374.5" x2="374.5" y1="204.6094" y2="334.2656"/><line style="stroke:#181818;stroke-width:1.0;" x1="292.5" x2="585.5" y1="204.6094" y2="204.6094"/><text fill="#000000" font-family="sans-serif" font-size="14" lengthAdjust="spacing" textLength="11" x="297.5" y="221.1426">id</text><text fill="#000000" font-family="sans-serif" font-size="14" lengthAdjust="spacing" textLength="156" x="379.5" y="221.1426">containers-update-agent</text><line style="stroke:#181818;stroke-width:1.0;" x1="292.5" x2="585.5" y1="226.2188" y2="226.2188"/><text fill="#000000" font-family="sans-serif" font-size="14" lengthAdjust="spacing" textLength="46" x="297.5" y="242.752">version</text><text fill="#000000" font-family="sans-serif" font-size="14" lengthAdjust="spacing" textLength="20" x="379.5" y="242.752">1.0</text><line style="stroke:#181818;stroke-width:1.0;" x1="292.5" x2="585.5" y1="247.8281" y2="247.8281"/><text fill="#000000" font-family="sans-serif" font-size="14" lengthAdjust="spacing" textLength="35" x="297.5" y="264.3613">name</text><text fill="#000000" font-family="sans-serif" font-size="14" lengthAdjust="spacing" textLength="152" x="379.5" y="264.3613">Container Update Agent</text><line style="stroke:#181818;stroke-width:1.0;" x1="292.5" x2="585.5" y1="269.4375" y2="269.4375"/><text fill="#000000" font-family="sans-serif" font-size="14" lengthAdjust="spacing" textLength="27" x="297.5" y="285.9707">type</text><text fill="#000000" font-family="sans-serif" font-size="14" lengthAdjust="spacing" textLength="89" x="379.5" y="285.9707">APPLICATION</text><line style="stroke:#181818;stroke-width:1.0;" x1="292.5" x2="585.5" y1="291.0469" y2="291.0469"/><text fill="#000000" font-family="sans-serif" font-size="14" lengthAdjust="spacing" textLength="72" x="297.5" y="307.5801">parameters</text><text fill="#000000" font-family="sans-serif" font-size="14" lengthAdjust="spacing" textLength="120" x="379.5" y="307.5801">domain=containers</text><line style="stroke:#181818;stroke-width:1.0;" x1="374.5" x2="585.5" y1="312.6563" y2="312.6563"/><text fill="#000000" font-family="sans-serif" font-size="14" lengthAdjust="spacing" textLength="201" x="379.5" y="329.1895">container_registry=http://ghcr.io</text><rect fill="#F1F1F1" height="129.6563" style="stroke:#181818;stroke-width:0.5;" width="217" x="24.5" y="194"/><text fill="#000000" font-family="sans-serif" font-size="14" lengthAdjust="spacing" textLength="104" x="81" y="210.5332">&#171;SoftwareNode&#187;</text><line style="stroke:#181818;stroke-width:1.0;" x1="106.5" x2="106.5" y1="215.6094" y2="323.6563"/><line style="stroke:#181818;stroke-width:1.0;" x1="24.5" x2="241.5" y1="215.6094" y2="215.6094"/><text fill="#000000" font-family="sans-serif" font-size="14" lengthAdjust="spacing" textLength="11" x="29.5" y="232.1426">id</text><text fill="#000000" font-family="sans-serif" font-size="14" lengthAdjust="spacing" textLength="112" x="111.5" y="232.1426">self-update-agent</text><line style="stroke:#181818;stroke-width:1.0;" x1="24.5" x2="241.5" y1="237.2188" y2="237.2188"/><text fill="#000000" font-family="sans-serif" font-size="14" lengthAdjust="spacing" textLength="46" x="29.5" y="253.752">version</text><text fill="#000000" font-family="sans-serif" font-size="14" lengthAdjust="spacing" textLength="32" x="111.5" y="253.752">0.2.0</text><line style="stroke:#181818;stroke-width:1.0;" x1="24.5" x2="241.5" y1="258.8281" y2="258.8281"/><text fill="#000000" font-family="sans-serif" font-size="14" lengthAdjust="spacing" textLength="35" x="29.5" y="275.3613">name</text><text fill="#000000" font-family="sans-serif" font-size="14" lengthAdjust="spacing" textLength="114" x="111.5" y="275.3613">Self Update Agent</text><line style="stroke:#181818;stroke-width:1.0;" x1="24.5" x2="241.5" y1="280.4375" y2="280.4375"/><text fill="#000000" font-family="sans-serif" font-size="14" lengthAdjust="spacing" textLength="27" x="29.5" y="296.9707">type</text><text fill="#000000" font-family="sans-serif" font-size="14" lengthAdjust="spacing" textLength="89" x="111.5" y="296.9707">APPLICATION</text><line style="stroke:#181818;stroke-width:1.0;" x1="24.5" x2="241.5" y1="302.0469" y2="302.0469"/><text fill="#000000" font-family="sans-serif" font-size="14" lengthAdjust="spacing" textLength="72" x="29.5" y="318.5801">parameters</text><text fill="#000000" font-family="sans-serif" font-size="14" lengthAdjust="spacing" textLength="125" x="111.5" y="318.5801">domain=self-update</text><rect fill="#F1F1F1" height="108.0469" style="stroke:#181818;stroke-width:0.5;" width="199" x="324.5" y="402"/><text fill="#000000" font-family="sans-serif" font-size="14" lengthAdjust="spacing" textLength="104" x="372" y="418.5332">&#171;SoftwareNode&#187;</text><line style="stroke:#181818;stroke-width:1.0;" x1="380.5" x2="380.5" y1="423.6094" y2="510.0469"/><line style="stroke:#181818;stroke-width:1.0;" x1="324.5" x2="523.5" y1="423.6094" y2="423.6094"/><text fill="#000000" font-family="sans-serif" font-size="14" lengthAdjust="spacing" textLength="11" x="329.5" y="440.1426">id</text><text fill="#000000" font-family="sans-serif" font-size="14" lengthAdjust="spacing" textLength="133" x="385.5" y="440.1426">containers:helloworld</text><line style="stroke:#181818;stroke-width:1.0;" x1="324.5" x2="523.5" y1="445.2188" y2="445.2188"/><text fill="#000000" font-family="sans-serif" font-size="14" lengthAdjust="spacing" textLength="46" x="329.5" y="461.752">version</text><text fill="#000000" font-family="sans-serif" font-size="14" lengthAdjust="spacing" textLength="32" x="385.5" y="461.752">1.0.0</text><line style="stroke:#181818;stroke-width:1.0;" x1="324.5" x2="523.5" y1="466.8281" y2="466.8281"/><text fill="#000000" font-family="sans-serif" font-size="14" lengthAdjust="spacing" textLength="35" x="329.5" y="483.3613">name</text><text fill="#000000" font-family="sans-serif" font-size="14" lengthAdjust="spacing" textLength="129" x="385.5" y="483.3613">Hello World Example</text><line style="stroke:#181818;stroke-width:1.0;" x1="324.5" x2="523.5" y1="488.4375" y2="488.4375"/><text fill="#000000" font-family="sans-serif" font-size="14" lengthAdjust="spacing" textLength="27" x="329.5" y="504.9707">type</text><text fill="#000000" font-family="sans-serif" font-size="14" lengthAdjust="spacing" textLength="79" x="385.5" y="504.9707">CONTAINER</text><rect fill="#F1F1F1" height="108.0469" style="stroke:#181818;stroke-width:0.5;" width="184" x="575" y="402"/><text fill="#000000" font-family="sans-serif" font-size="14" lengthAdjust="spacing" textLength="104" x="615" y="418.5332">&#171;SoftwareNode&#187;</text><line style="stroke:#181818;stroke-width:1.0;" x1="631" x2="631" y1="423.6094" y2="510.0469"/><line style="stroke:#181818;stroke-width:1.0;" x1="575" x2="759" y1="423.6094" y2="423.6094"/><text fill="#000000" font-family="sans-serif" font-size="14" lengthAdjust="spacing" textLength="11" x="580" y="440.1426">id</text><text fill="#000000" font-family="sans-serif" font-size="14" lengthAdjust="spacing" textLength="118" x="636" y="440.1426">containers:influxdb</text><line style="stroke:#181818;stroke-width:1.0;" x1="575" x2="759" y1="445.2188" y2="445.2188"/><text fill="#000000" font-family="sans-serif" font-size="14" lengthAdjust="spacing" textLength="46" x="580" y="461.752">version</text><text fill="#000000" font-family="sans-serif" font-size="14" lengthAdjust="spacing" textLength="32" x="636" y="461.752">2.7.1</text><line style="stroke:#181818;stroke-width:1.0;" x1="575" x2="759" y1="466.8281" y2="466.8281"/><text fill="#000000" font-family="sans-serif" font-size="14" lengthAdjust="spacing" textLength="35" x="580" y="483.3613">name</text><text fill="#000000" font-family="sans-serif" font-size="14" lengthAdjust="spacing" textLength="51" x="636" y="483.3613">InfluxDB</text><line style="stroke:#181818;stroke-width:1.0;" x1="575" x2="759" y1="488.4375" y2="488.4375"/><text fill="#000000" font-family="sans-serif" font-size="14" lengthAdjust="spacing" textLength="27" x="580" y="504.9707">type</text><text fill="#000000" font-family="sans-serif" font-size="14" lengthAdjust="spacing" textLength="79" x="636" y="504.9707">CONTAINER</text><rect fill="#F1F1F1" height="108.0469" style="stroke:#181818;stroke-width:0.5;" width="252" x="7" y="402"/><text fill="#000000" font-family="sans-serif" font-size="14" lengthAdjust="spacing" textLength="104" x="81" y="418.5332">&#171;SoftwareNode&#187;</text><line style="stroke:#181818;stroke-width:1.0;" x1="63" x2="63" y1="423.6094" y2="510.0469"/><line style="stroke:#181818;stroke-width:1.0;" x1="7" x2="259" y1="423.6094" y2="423.6094"/><text fill="#000000" font-family="sans-serif" font-size="14" lengthAdjust="spacing" textLength="11" x="12" y="440.1426">id</text><text fill="#000000" font-family="sans-serif" font-size="14" lengthAdjust="spacing" textLength="186" x="68" y="440.1426">self-update:leda-deviceimage</text><line style="stroke:#181818;stroke-width:1.0;" x1="7" x2="259" y1="445.2188" y2="445.2188"/><text fill="#000000" font-family="sans-serif" font-size="14" lengthAdjust="spacing" textLength="46" x="12" y="461.752">version</text><text fill="#000000" font-family="sans-serif" font-size="14" lengthAdjust="spacing" textLength="32" x="68" y="461.752">1.0.0</text><line style="stroke:#181818;stroke-width:1.0;" x1="7" x2="259" y1="466.8281" y2="466.8281"/><text fill="#000000" font-family="sans-serif" font-size="14" lengthAdjust="spacing" textLength="35" x="12" y="483.3613">name</text><text fill="#000000" font-family="sans-serif" font-size="14" lengthAdjust="spacing" textLength="168" x="68" y="483.3613">Official Leda Device Image</text><line style="stroke:#181818;stroke-width:1.0;" x1="7" x2="259" y1="488.4375" y2="488.4375"/><text fill="#000000" font-family="sans-serif" font-size="14" lengthAdjust="spacing" textLength="27" x="12" y="504.9707">type</text><text fill="#000000" font-family="sans-serif" font-size="14" lengthAdjust="spacing" textLength="43" x="68" y="504.9707">IMAGE</text><!--link vum to cua--><g id="link_vum_cua"><path codeLine="54" d="M413.51,119.07 C416.66,136.17 420.18,155.3 423.58,173.74 " fill="none" id="vum-to-cua" style="stroke:#181818;stroke-width:1.0;"/><polygon fill="#181818" points="424.53,178.92,426.8482,169.3479,423.6318,174.0013,418.9783,170.785,424.53,178.92" style="stroke:#181818;stroke-width:1.0;"/></g><!--link cua to con1--><g id="link_cua_con1"><path codeLine="55" d="M432.96,338.17 C431.58,356.25 430.12,375.23 428.79,392.52 " fill="none" id="cua-to-con1" style="stroke:#181818;stroke-width:1.0;"/><polygon fill="#181818" points="428.39,397.82,433.0723,389.1553,428.7757,392.8349,425.0961,388.5383,428.39,397.82" style="stroke:#181818;stroke-width:1.0;"/></g><!--link cua to con2--><g id="link_cua_con2"><path codeLine="56" d="M530.75,338.17 C552.65,356.95 575.69,376.71 596.47,394.52 " fill="none" id="cua-to-con2" style="stroke:#181818;stroke-width:1.0;"/><polygon fill="#181818" points="600.32,397.82,596.0899,388.9259,596.5237,394.566,590.8835,394.9999,600.32,397.82" style="stroke:#181818;stroke-width:1.0;"/></g><!--link vum to sua--><g id="link_vum_sua"><path codeLine="57" d="M324.18,119.07 C294.83,140.32 261.18,164.69 230.36,187 " fill="none" id="vum-to-sua" style="stroke:#181818;stroke-width:1.0;"/><polygon fill="#181818" points="226.23,189.99,235.8639,187.9435,230.2774,187.0542,231.1667,181.4677,226.23,189.99" style="stroke:#181818;stroke-width:1.0;"/></g><!--link sua to img--><g id="link_sua_img"><path codeLine="58" d="M133,327.05 C133,348.32 133,371.7 133,392.59 " fill="none" id="sua-to-img" style="stroke:#181818;stroke-width:1.0;"/><polygon fill="#181818" points="133,397.84,137,388.84,133,392.84,129,388.84,133,397.84" style="stroke:#181818;stroke-width:1.0;"/></g><!--reverse link ccu to sua--><g id="link_ccu_sua"><path codeLine="59" d="M133,124.34 C133,145.26 133,168.69 133,189.99 " fill="none" id="ccu-backto-sua" style="stroke:#181818;stroke-width:1.0;"/><polygon fill="#181818" points="133,119.07,129,128.07,133,124.07,137,128.07,133,119.07" style="stroke:#181818;stroke-width:1.0;"/></g><!--SRC=[hPFHJi8m58RlznHDhzc4tPWiG3A1w1818nXYZ36rxRQQjLswRaACxsutXuu1OentRS_vs-y_vnGbYNpbRCr4P5alcHG0zljNI95NfEXC4ZeSGe0oW74EtYm006G4UW3YRXXI2ZlLKK5LngI07bIqSEj3WJWjC-ShVt6_01ToNGTIf4n86uq9Fq2SvZPIE1uWnOjp-6YzVuCiPAXR84NETq3ob21DROu4YgZQ0-evNQVR8hgh962w8z6Rj0hwDpVNmSXV1lCPF862SxHR4oaqOiAyRTTKvdwX3p6rY4PR9QZP_8Rm4Dd1IXB9pIM3RmpOQK0zAHgnJAlD8DOwzSxEeXWhXycJ5SzQDZEQX3yRx3hkdiM5KVs7kyRh9ycDzzwH3danBITVgeJyQcQkodImAlF1P8rucj2MWT5yjlI3sUGMdgPoZr4n4IRvcZplCRdEkTDhCGLLylZYho2CHySQwoMK89lGWc7AkEdohueq3qE66Kh0jL63SQK6GKE-HGoc_kMamYk_isqFoxzabV-fMfksDJVkLvOPHIkh0uR-SvsNMJYtFW00]--></g></svg>